<svg xmlns="http://www.w3.org/2000/svg" version="1.1" xmlns:xlink="http://www.w3.org/1999/xlink" xmlns:svgjs="http://svgjs.dev/svgjs" width="1000" height="623" viewBox="0 0 1000 623"><g transform="matrix(1,0,0,1,-0.6060606060606233,0.2522267206477977)"><svg viewBox="0 0 396 247" data-background-color="#ffffff" preserveAspectRatio="xMidYMid meet" height="623" width="1000" xmlns="http://www.w3.org/2000/svg" xmlns:xlink="http://www.w3.org/1999/xlink"><g id="tight-bounds" transform="matrix(1,0,0,1,0.2400000000000091,-0.09999999999999432)"><svg viewBox="0 0 395.52 247.2" height="247.2" width="395.52"><g><svg></svg></g><g><svg viewBox="0 0 395.52 247.2" height="247.2" width="395.52"><g><g><path xmlns="http://www.w3.org/2000/svg" d="M42.182 45.775c-2.539-3.449-3.809-7.569-3.809-12.36 0-6.947 4.671-12.456 14.013-16.528 34.253-6.947 68.747-11.857 103.479-14.731 9.342 4.072 14.013 9.581 14.013 16.528 0 4.312-2.156 8.503-6.467 12.575-4.312 4.072-9.222 6.947-14.732 8.624l-19.761 2.515c-2.127 9.382-5.69 24.415-10.692 45.099l-46.192 0 9.815-38.991c-9.821 1.437-19.402 3.114-28.744 5.03-4.791-1.677-8.432-4.264-10.923-7.761zM90.832 198.694l27.666-2.874c9.342 4.072 14.013 9.581 14.013 16.528 0 4.312-2.156 8.503-6.468 12.575-4.312 4.072-9.222 6.947-14.731 8.624l-14.372 1.796c-35.212 3.833-62.279 7.785-81.203 11.857-4.791-1.677-8.456-4.264-10.994-7.761-2.491-3.449-3.737-7.569-3.737-12.36 0-6.947 4.671-12.456 14.013-16.528 11.977-2.395 21.079-4.072 27.307-5.03l11.533-45.818h46.72zM266.818 237.499c-3.976 4.551-10.396 6.827-19.259 6.827-7.426 0-12.863-1.246-16.312-3.737-3.497-2.539-5.246-6.803-5.246-12.791 0-2.635 0.359-5.15 1.078-7.546l15.262-60.549h47.437c-3.21 13.242-5.545 23.005-7.007 29.29-1.437 5.988-2.755 11.378-3.952 16.169-1.198 4.791-2.276 9.102-3.234 12.935-1.916 8.384-4.839 14.851-8.767 19.402zM270.914 46.35c-0.24 0-8.024 0.838-23.355 2.515-18.444 1.437-29.942 2.635-34.493 3.593-4.791-1.677-8.432-4.264-10.923-7.761-2.539-3.449-3.809-7.569-3.808-12.36 0-3.833 1.389-7.497 4.168-10.994 2.731-3.449 6.012-6.012 9.845-7.69 11.977-2.395 28.744-4.431 50.302-6.108 21.558-1.677 49.224-3.473 82.999-5.389 17.247-0.719 28.864-1.437 34.852-2.156 3.833 1.677 7.138 4.264 9.917 7.761 2.731 3.449 4.096 7.09 4.096 10.923 0 4.312-2.156 8.503-6.467 12.575-4.312 4.072-9.222 6.947-14.732 8.624l-62.878 3.233c2.635 0.958 3.952 4.192 3.953 9.701 0 2.874-0.24 5.03-0.719 6.468-1.854 8.287-4.015 17.691-6.484 28.212l-46.645 0z" fill="#613887" fill-rule="nonzero" stroke="none" stroke-width="1" stroke-linecap="butt" stroke-linejoin="miter" stroke-miterlimit="10" stroke-dasharray="" stroke-dashoffset="0" font-family="none" font-weight="none" font-size="none" text-anchor="none" style="mix-blend-mode: normal" data-fill-palette-color="tertiary"></path></g></g><g transform="matrix(1,0,0,1,0,95.65301323148275)"><svg viewBox="0 0 395.52 55.893973537034505" height="55.893973537034505" width="395.52"><g><svg viewBox="0 0 395.52 55.893973537034505" height="55.893973537034505" width="395.52"><g><svg viewBox="0 0 395.52 55.893973537034505" height="55.893973537034505" width="395.52"><g><svg viewBox="0 0 395.52 55.893973537034505" height="55.893973537034505" width="395.52"><g><svg viewBox="0 0 395.52 55.893973537034505" height="55.893973537034505" width="395.52" id="textblock"><g><svg viewBox="0 0 395.52 55.893973537034505" height="55.893973537034505" width="395.52"><g transform="matrix(1,0,0,1,0,0)"><svg width="395.52" viewBox="-1.2000000476837158 -38.75 366.52001953125 51.79999923706055" height="55.893973537034505" data-palette-color="#d0adf0"><path d="M6.05-25.9Q5.05-26.25 4.53-26.98 4-27.7 4-28.7L4-28.7Q4-30.15 5.95-31L5.95-31Q13.1-32.45 20.35-33.05L20.35-33.05Q22.3-32.2 22.3-30.75L22.3-30.75Q22.3-29.85 21.4-29 20.5-28.15 19.35-27.8L19.35-27.8 16.6-27.45Q15.75-23.7 12.7-11.3L12.7-11.3 11.3-5.7 15.15-6.1Q17.1-5.25 17.1-3.8L17.1-3.8Q17.1-2.9 16.2-2.05 15.3-1.2 14.15-0.85L14.15-0.85 12.15-0.6Q4.8 0.2 0.85 1.05L0.85 1.05Q-0.15 0.7-0.68-0.03-1.2-0.75-1.2-1.75L-1.2-1.75Q-1.2-3.2 0.75-4.05L0.75-4.05Q3.25-4.55 4.55-4.75L4.55-4.75 10.05-26.6Q8-26.3 6.05-25.9L6.05-25.9ZM26.6-1.9Q26.55-1.6 26.37-0.73 26.2 0.15 25.52 0.5 24.85 0.85 23.4 0.85L23.4 0.85Q21.75 0.85 21 0.5 20.25 0.15 20.25-1L20.25-1 22.65-10.55Q24.65-18.8 25.3-21.05L25.3-21.05 24.05-22.55Q23.9-22.7 23.9-22.9L23.9-22.9Q23.9-23.4 25-23.73 26.1-24.05 28.05-24.05L28.05-24.05Q29.8-24.05 30.4-23.08 31-22.1 31.15-20.55L31.15-20.55 30.8-19.25Q32.4-21.2 34.52-22.48 36.65-23.75 38.3-23.75L38.3-23.75Q40.45-23.75 41.65-23 42.85-22.25 42.85-21.05L42.85-21.05Q42.85-20 42.12-18.88 41.4-17.75 40.3-16.98 39.2-16.2 38.15-16.1L38.15-16.1Q37.15-16.1 36.8-16.35 36.45-16.6 36.45-17.1L36.45-17.1 36.75-18.75Q32.75-17.65 29.5-13.45L29.5-13.45 26.6-1.9ZM55.3-2.1Q53.59-0.5 52 0.28 50.4 1.05 48.4 1.05L48.4 1.05Q45.09 1.05 43.32-1 41.55-3.05 41.55-6.45L41.55-6.45Q41.55-7.45 41.84-8.65L41.84-8.65 45.2-21.7Q45.5-22.8 46.27-23.33 47.05-23.85 48.8-23.85L48.8-23.85Q51.4-23.85 51.4-22.4L51.4-22.4Q51.4-21.8 51.05-20.5L51.05-20.5 47.7-7.1Q47.55-6.5 47.55-5.9L47.55-5.9Q47.55-4.85 48.09-4.2 48.65-3.55 49.84-3.55L49.84-3.55Q51.4-3.55 53.2-4.45 55-5.35 56.25-6.65L56.25-6.65 57.2-10.6Q58.15-14.6 59.4-19.25L59.4-19.25Q59.95-21.25 60.82-22.53 61.7-23.8 63.59-23.8L63.59-23.8Q66.25-23.8 66.25-22.2L66.25-22.2Q66.25-21.95 66.12-21.58 66-21.2 65.95-20.95L65.95-20.95 64.3-14.1Q61.7-3.2 60.9-0.15L60.9-0.15Q59.59 4.85 57.95 7.7 56.3 10.55 53.82 11.8 51.34 13.05 47.5 13.05L47.5 13.05Q45.05 13.05 43.47 12.35 41.9 11.65 41.17 10.65 40.45 9.65 40.45 8.8L40.45 8.8Q40.45 6.35 43.15 6.35L43.15 6.35Q43.9 6.35 44.37 6.65 44.84 6.95 45.34 7.5L45.34 7.5Q46.09 8.2 46.72 8.55 47.34 8.9 48.45 8.9L48.45 8.9Q49.3 8.9 50.34 8.2 51.4 7.5 52.4 6 53.4 4.5 54.05 2.25L54.05 2.25 55.3-2.1ZM70.39-22.85Q70.24-23 70.24-23.2L70.24-23.2Q70.24-23.7 71.34-24.03 72.44-24.35 74.39-24.35L74.39-24.35Q76.19-24.35 77.04-23.43 77.89-22.5 78.04-21.2L78.04-21.2 77.14-17.95Q78.19-19.4 80.09-20.73 81.99-22.05 83.94-22.85 85.89-23.65 87.14-23.65L87.14-23.65Q89.79-23.65 90.99-22.68 92.19-21.7 92.19-19.6L92.19-19.6Q89.24-11.9 88.29-3L88.29-3 88.99-0.55Q88.39 0.6 87.32 1.28 86.24 1.95 84.19 1.95L84.19 1.95Q82.99 1.95 82.44 1.15 81.89 0.35 81.89-0.85L81.89-0.85Q81.89-4.2 82.87-8.22 83.84-12.25 85.14-16.45L85.14-16.45Q85.64-18.05 85.64-18.1L85.64-18.1Q85.64-18.8 84.84-18.8L84.84-18.8Q83.74-18.8 81.52-17.25 79.29-15.7 76.94-12.03 74.59-8.35 73.14-2.4L73.14-2.4Q73.04-2.1 72.89-1.3 72.74-0.5 72.09-0.18 71.44 0.15 69.99 0.15L69.99 0.15Q68.34 0.15 67.57-0.2 66.79-0.55 66.79-1.7L66.79-1.7Q66.94-2.4 67.24-3.4L67.24-3.4Q70.14-15.05 71.69-21.35L71.69-21.35 70.39-22.85ZM113.29-2.6Q113.39-1.3 113.64-0.25L113.64-0.25Q113.54 0.05 112.77 0.35 111.99 0.65 111.44 0.65L111.44 0.65Q109.64 0.65 108.87 0.13 108.09-0.4 108.09-1.45L108.09-1.45Q108.09-2.45 108.29-3.45L108.29-3.45Q107.19-1.95 105.07-0.98 102.94 0 101.64 0L101.64 0Q98.29 0 96.07-1.95 93.84-3.9 93.84-8.2L93.84-8.2Q93.84-12.25 95.77-15.83 97.69-19.4 101.09-21.58 104.49-23.75 108.64-23.75L108.64-23.75Q109.44-23.75 110.74-23.33 112.04-22.9 113.37-21.88 114.69-20.85 115.59-19.25L115.59-19.25Q115.99-19.25 116.54-18.85 117.09-18.45 117.09-18.05L117.09-18.05Q117.09-17.6 116.94-17.15L116.94-17.15 113.29-2.6ZM111.04-16.6Q110.74-17.7 109.87-18.45 108.99-19.2 108.29-19.2L108.29-19.2Q105.99-19.2 103.97-17.57 101.94-15.95 100.69-13.55 99.44-11.15 99.44-9L99.44-9Q99.44-6.9 99.94-5.55 100.44-4.2 101.89-4.2L101.89-4.2Q103.14-4.2 104.77-4.95 106.39-5.7 107.67-6.98 108.94-8.25 109.34-9.65L109.34-9.65 111.04-16.6ZM144.89-3Q144.49-1.25 143.66-0.3 142.84 0.65 140.99 0.65L140.99 0.65Q139.44 0.65 138.71 0.13 137.99-0.4 137.99-1.65L137.99-1.65Q137.99-2.2 138.14-2.7L138.14-2.7 144.24-26.9Q144.19-26.9 140.99-26.55L140.99-26.55Q137.14-26.25 136.19-26.05L136.19-26.05Q135.19-26.4 134.66-27.13 134.14-27.85 134.14-28.85L134.14-28.85Q134.14-29.65 134.71-30.38 135.29-31.1 136.09-31.45L136.09-31.45Q138.59-31.95 143.09-32.3 147.59-32.65 154.64-33.05L154.64-33.05Q158.24-33.2 159.49-33.35L159.49-33.35Q160.29-33 160.86-32.27 161.44-31.55 161.44-30.75L161.44-30.75Q161.44-29.85 160.54-29 159.64-28.15 158.49-27.8L158.49-27.8 149.74-27.35Q150.29-27.15 150.29-26L150.29-26Q150.29-25.4 150.19-25.1L150.19-25.1Q149.34-21.3 147.86-15.25 146.39-9.2 145.89-7.05L145.89-7.05Q145.59-5.8 145.34-4.8 145.09-3.8 144.89-3L144.89-3ZM184.98-22.4Q185.18-22.1 185.51-21.28 185.83-20.45 185.83-20L185.83-20Q185.83-19.75 185.78-19.7L185.78-19.7Q185.53-19.4 184.63-19.2 183.73-19 183.43-18.95L183.43-18.95Q181.88-17.95 178.51-15.78 175.13-13.6 173.58-12.6L173.58-12.6Q173.68-11.4 175.38-8.93 177.08-6.45 179.03-4.25 180.98-2.05 181.38-2.05L181.38-2.05Q181.83-2.05 182.51-1.3 183.18-0.55 183.18 0.05L183.18 0.05Q183.18 0.6 182.48 0.75L182.48 0.75Q182.03 0.85 180.81 1.1 179.58 1.35 178.68 1.35L178.68 1.35Q177.88 1.35 177.43 1.15L177.43 1.15Q176.28 0.75 174.31-1.53 172.33-3.8 170.53-6.63 168.73-9.45 168.18-11.5L168.18-11.5Q166.58-5.05 165.93-2.68 165.28-0.3 164.88 0.43 164.48 1.15 163.93 1.15L163.93 1.15 162.53 1.2Q159.23 1.2 159.08-1.45L159.08-1.45Q160.08-3.9 160.48-5.5L160.48-5.5Q165.43-23.85 167.53-33.15L167.53-33.15Q167.48-33.9 167.43-35.23 167.38-36.55 167.38-37.3L167.38-37.3Q167.53-37.95 168.51-38.35 169.48-38.75 170.28-38.75L170.28-38.75Q171.53-38.75 172.93-37.9 174.33-37.05 174.38-35.85L174.38-35.85 169.93-18.4 169.08-14.95Q170.13-16.25 172.66-18.15 175.18-20.05 177.86-21.55 180.53-23.05 182.13-23.35L182.13-23.35Q182.53-23.35 183.61-23.1 184.68-22.85 184.98-22.4L184.98-22.4ZM205.73-2.6Q205.83-1.3 206.08-0.25L206.08-0.25Q205.98 0.05 205.21 0.35 204.43 0.65 203.88 0.65L203.88 0.65Q202.08 0.65 201.31 0.13 200.53-0.4 200.53-1.45L200.53-1.45Q200.53-2.45 200.73-3.45L200.73-3.45Q199.63-1.95 197.51-0.98 195.38 0 194.08 0L194.08 0Q190.73 0 188.51-1.95 186.28-3.9 186.28-8.2L186.28-8.2Q186.28-12.25 188.21-15.83 190.13-19.4 193.53-21.58 196.93-23.75 201.08-23.75L201.08-23.75Q201.88-23.75 203.18-23.33 204.48-22.9 205.81-21.88 207.13-20.85 208.03-19.25L208.03-19.25Q208.43-19.25 208.98-18.85 209.53-18.45 209.53-18.05L209.53-18.05Q209.53-17.6 209.38-17.15L209.38-17.15 205.73-2.6ZM203.48-16.6Q203.18-17.7 202.31-18.45 201.43-19.2 200.73-19.2L200.73-19.2Q198.43-19.2 196.41-17.57 194.38-15.95 193.13-13.55 191.88-11.15 191.88-9L191.88-9Q191.88-6.9 192.38-5.55 192.88-4.2 194.33-4.2L194.33-4.2Q195.58-4.2 197.21-4.95 198.83-5.7 200.11-6.98 201.38-8.25 201.78-9.65L201.78-9.65 203.48-16.6ZM233.53-5.9Q232.93-4.3 231.18-2.68 229.43-1.05 226.73 0 224.03 1.05 220.83 1.05L220.83 1.05Q215.93 1.05 213.58-0.98 211.23-3 211.23-6.25L211.23-6.25Q211.23-10.95 213.63-14.98 216.03-19 220.08-21.35 224.13-23.7 228.73-23.7L228.73-23.7Q231.58-23.7 233.45-22.03 235.33-20.35 235.33-17.5L235.33-17.5Q235.33-16.4 234.43-15.68 233.53-14.95 232.03-14.95L232.03-14.95Q230.83-14.95 230.4-15.5 229.98-16.05 229.98-16.95L229.98-16.95 230.03-18.1Q230.03-18.7 229.38-19.07 228.73-19.45 227.98-19.45L227.98-19.45Q226.43-19.45 223.8-17.6 221.18-15.75 219.2-12.73 217.23-9.7 217.23-6.25L217.23-6.25Q217.23-4.85 218.33-4.1 219.43-3.35 221.58-3.35L221.58-3.35Q222.93-3.35 224.68-3.9 226.43-4.45 226.88-5.3L226.88-5.3Q228.58-8.4 229.98-8.4L229.98-8.4Q232.03-8.4 232.75-7.63 233.48-6.85 233.53-5.9L233.53-5.9ZM244.33-16.5Q245.48-18.75 247.5-20.35 249.53-21.95 251.63-22.8 253.73-23.65 255.08-23.65L255.08-23.65Q257.68-23.65 258.83-22.68 259.98-21.7 259.98-19.6L259.98-19.6Q257.03-11.9 256.08-3L256.08-3 256.78-0.55Q256.18 0.6 255.18 1.28 254.18 1.95 252.13 1.95L252.13 1.95Q250.93 1.95 250.38 1.15 249.83 0.35 249.83-0.85L249.83-0.85Q249.83-4.2 250.8-8.22 251.78-12.25 253.08-16.45L253.08-16.45Q253.58-18.05 253.58-18.1L253.58-18.1Q253.58-18.8 252.78-18.8L252.78-18.8Q251.73-18.8 249.73-17.25 247.73-15.7 245.58-12.03 243.43-8.35 241.98-2.4L241.98-2.4Q241.93-2.15 241.73-1.35 241.53-0.55 240.83-0.2 240.13 0.15 238.68 0.15L238.68 0.15Q236.93 0.15 235.98-0.23 235.03-0.6 235.03-1.7L235.03-1.7Q241.58-27.45 243.13-33.9L243.13-33.9Q243.08-34.55 243.05-35.63 243.03-36.7 243.03-37.3L243.03-37.3Q243.18-38 244.1-38.38 245.03-38.75 245.98-38.75L245.98-38.75Q247.58-38.75 248.68-37.9 249.78-37.05 249.88-35.75L249.88-35.75 244.33-16.5ZM271.97 1.05Q267.07 1.05 264.82-0.9 262.57-2.85 262.57-6.1L262.57-6.1Q262.57-10.85 264.95-14.9 267.32-18.95 271.3-21.33 275.27-23.7 279.87-23.7L279.87-23.7Q282.67-23.7 284.57-22.13 286.47-20.55 286.47-17.5L286.47-17.5Q286.47-15.75 285.35-14.63 284.22-13.5 282.12-12.63 280.02-11.75 275.32-10.15L275.32-10.15Q271.07-8.75 268.42-7.8L268.42-7.8Q268.22-7.05 268.22-6.25L268.22-6.25Q268.22-4.85 269.4-4.1 270.57-3.35 272.72-3.35L272.72-3.35Q274.07-3.35 275.82-3.9 277.57-4.45 278.02-5.3L278.02-5.3Q279.72-8.4 281.12-8.4L281.12-8.4Q283.17-8.4 283.9-7.63 284.62-6.85 284.67-5.9L284.67-5.9Q284.07-4.3 282.32-2.68 280.57-1.05 277.87 0 275.17 1.05 271.97 1.05L271.97 1.05ZM269.82-12.4Q274.77-14 277.97-15.38 281.17-16.75 281.17-18.1L281.17-18.1Q281.17-18.7 280.52-19.07 279.87-19.45 279.12-19.45L279.12-19.45Q277.62-19.45 275.7-18.3 273.77-17.15 272.12-15.5 270.47-13.85 269.82-12.4L269.82-12.4ZM291.72-22.85Q291.57-23 291.57-23.2L291.57-23.2Q291.57-23.7 292.67-24.03 293.77-24.35 295.72-24.35L295.72-24.35Q297.52-24.35 298.37-23.43 299.22-22.5 299.37-21.2L299.37-21.2 298.47-17.95Q299.52-19.4 301.42-20.73 303.32-22.05 305.27-22.85 307.22-23.65 308.47-23.65L308.47-23.65Q311.12-23.65 312.32-22.68 313.52-21.7 313.52-19.6L313.52-19.6Q310.57-11.9 309.62-3L309.62-3 310.32-0.55Q309.72 0.6 308.65 1.28 307.57 1.95 305.52 1.95L305.52 1.95Q304.32 1.95 303.77 1.15 303.22 0.35 303.22-0.85L303.22-0.85Q303.22-4.2 304.2-8.22 305.17-12.25 306.47-16.45L306.47-16.45Q306.97-18.05 306.97-18.1L306.97-18.1Q306.97-18.8 306.17-18.8L306.17-18.8Q305.07-18.8 302.85-17.25 300.62-15.7 298.27-12.03 295.92-8.35 294.47-2.4L294.47-2.4Q294.37-2.1 294.22-1.3 294.07-0.5 293.42-0.18 292.77 0.15 291.32 0.15L291.32 0.15Q289.67 0.15 288.9-0.2 288.12-0.55 288.12-1.7L288.12-1.7Q288.27-2.4 288.57-3.4L288.57-3.4Q291.47-15.05 293.02-21.35L293.02-21.35 291.72-22.85ZM340.42-22.4Q340.62-22.1 340.94-21.28 341.27-20.45 341.27-20L341.27-20Q341.27-19.75 341.22-19.7L341.22-19.7Q340.97-19.4 340.07-19.2 339.17-19 338.87-18.95L338.87-18.95Q337.32-17.95 333.94-15.78 330.57-13.6 329.02-12.6L329.02-12.6Q329.12-11.4 330.82-8.93 332.52-6.45 334.47-4.25 336.42-2.05 336.82-2.05L336.82-2.05Q337.27-2.05 337.94-1.3 338.62-0.55 338.62 0.05L338.62 0.05Q338.62 0.6 337.92 0.75L337.92 0.75Q337.47 0.85 336.24 1.1 335.02 1.35 334.12 1.35L334.12 1.35Q333.32 1.35 332.87 1.15L332.87 1.15Q331.72 0.75 329.74-1.53 327.77-3.8 325.97-6.63 324.17-9.45 323.62-11.5L323.62-11.5Q322.02-5.05 321.37-2.68 320.72-0.3 320.32 0.43 319.92 1.15 319.37 1.15L319.37 1.15 317.97 1.2Q314.67 1.2 314.52-1.45L314.52-1.45Q315.52-3.9 315.92-5.5L315.92-5.5Q320.87-23.85 322.97-33.15L322.97-33.15Q322.92-33.9 322.87-35.23 322.82-36.55 322.82-37.3L322.82-37.3Q322.97-37.95 323.94-38.35 324.92-38.75 325.72-38.75L325.72-38.75Q326.97-38.75 328.37-37.9 329.77-37.05 329.82-35.85L329.82-35.85 325.37-18.4 324.52-14.95Q325.57-16.25 328.09-18.15 330.62-20.05 333.29-21.55 335.97-23.05 337.57-23.35L337.57-23.35Q337.97-23.35 339.04-23.1 340.12-22.85 340.42-22.4L340.42-22.4ZM351.67 1.05Q347.27 1.05 344.82-1.95 342.37-4.95 342.37-9.6L342.37-9.6Q342.37-13.5 344.24-16.95 346.12-20.4 349.37-22.5 352.62-24.6 356.52-24.6L356.52-24.6Q360.37-24.6 362.84-22.08 365.32-19.55 365.32-14.65L365.32-14.65Q365.32-11.2 363.42-7.5 361.52-3.8 358.34-1.38 355.17 1.05 351.67 1.05L351.67 1.05ZM352.42-2.95Q354.02-2.95 355.64-4.95 357.27-6.95 358.32-10 359.37-13.05 359.37-15.95L359.37-15.95Q359.37-20.4 355.67-20.4L355.67-20.4Q353.62-20.4 351.92-18.45 350.22-16.5 349.22-13.63 348.22-10.75 348.22-8.25L348.22-8.25Q348.22-6.8 348.87-5.58 349.52-4.35 350.49-3.65 351.47-2.95 352.42-2.95L352.42-2.95Z" opacity="1" transform="matrix(1,0,0,1,0,0)" fill="#d0adf0" class="undefined-text-0" data-fill-palette-color="primary" id="text-0"></path></svg></g></svg></g></svg></g></svg></g></svg></g></svg></g></svg></g></svg></g><defs></defs></svg><rect width="395.52" height="247.2" fill="none" stroke="none" visibility="hidden"></rect></g></svg></g></svg>